<svg xmlns="http://www.w3.org/2000/svg" width="256" height="256" viewBox="0 0 100 100">
    <rect width="100" height="100" rx="20" fill="#000000"></rect>
    <path d="M10.27 88.66L10.27 11.34L31.23 11.34Q39.70 11.34 43.52 15.48Q47.34 19.63 47.34 28.99L47.34 28.99L47.34 32.41Q47.34 43.48 39.42 45.64L39.42 45.64Q44.28 46.90 46.27 51.48Q48.24 56.08 48.24 63.64L48.24 63.64Q48.24 75.97 44.55 82.31Q40.86 88.66 31.23 88.66L31.23 88.66L10.27 88.66ZM25.38 40.42L28.53 40.42Q30.52 40.42 31.23 38.93Q31.95 37.45 31.95 34.75L31.95 34.75L31.95 27.01Q31.95 23.23 28.63 23.23L28.63 23.23L25.38 23.23L25.38 40.42ZM26.91 75.06Q32.95 75.06 32.95 69.31L32.95 69.31L32.95 59.67Q32.95 56.16 31.91 54.37Q30.88 52.57 28.27 52.57L28.27 52.57L25.38 52.57L25.38 74.97L26.91 75.06ZM71.73 89.38Q61.20 89.38 56.52 84.16Q51.84 78.94 51.84 67.33L51.84 67.33L51.84 59.77L67.05 59.77L67.05 69.40Q67.05 75.16 70.75 75.16L70.75 75.16Q72.81 75.16 73.63 73.94Q74.44 72.72 74.44 69.84L74.44 69.84Q74.44 66.06 73.53 63.59Q72.63 61.12 71.24 59.45Q69.84 57.79 66.25 54.28L66.25 54.28L59.58 47.62Q51.84 40.05 51.84 30.88L51.84 30.88Q51.84 20.98 56.39 15.80Q60.94 10.63 69.66 10.63L69.66 10.63Q80.10 10.63 84.69 16.16Q89.28 21.70 89.28 33.49L89.28 33.49L73.53 33.49L73.44 28.18Q73.44 26.65 72.59 25.75Q71.73 24.85 70.20 24.85L70.20 24.85Q68.41 24.85 67.50 25.84Q66.60 26.83 66.60 28.54L66.60 28.54Q66.60 32.32 70.92 36.37L70.92 36.37L79.92 45.01Q83.07 48.07 85.14 50.81Q87.22 53.55 88.47 57.29Q89.73 61.03 89.73 66.16L89.73 66.16Q89.73 77.59 85.55 83.48Q81.36 89.38 71.73 89.38L71.73 89.38Z"
          fill="#fff"></path>
</svg>